nColumns=19
nRows=52
DataType=double
version=3
OpenSimVersion=4.1
endheader
time	ground_force_calcn_r_vx	ground_force_calcn_r_vy	ground_force_calcn_r_vz	ground_force_calcn_r_px	ground_force_calcn_r_py	ground_force_calcn_r_pz	ground_force_calcn_r_mx	ground_force_calcn_r_my	ground_force_calcn_r_mz	ground_force_calcn_l_vx	ground_force_calcn_l_vy	ground_force_calcn_l_vz	ground_force_calcn_l_px	ground_force_calcn_l_py	ground_force_calcn_l_pz	ground_force_calcn_l_mx	ground_force_calcn_l_my	ground_force_calcn_l_mz
1.56	-163.808	203.731	-36.5145	-0.0459543	0	-0.373544	-0.68227	0.848553	-0.152085	-163.519	194.803	14.5719	-0.0101286	0	-0.711404	2.06344	-2.45821	-0.183882
1.57	-326.126	455.99	-82.0429	-0.0623552	0	-0.366546	-0.923596	1.29137	-0.232347	-316.56	421.969	49.1201	-0.0268492	0	-0.733908	2.02484	-2.69908	-0.314191
1.58	-207.714	646.41	-93.523	-0.114024	0	-0.37232	-0.635899	1.97893	-0.286313	-236.475	642.154	101.381	-0.0769164	0	-0.739097	1.04564	-2.83946	-0.448285
1.59	-49.8909	1177.56	-74.75	-0.175282	0	-0.388203	0.0618681	-1.46026	0.0926951	-78.0167	1158.84	122.584	-0.138928	0	-0.7385	-0.191638	2.84655	0.301113
1.6	-13.0004	1333.09	-39.9142	-0.188528	0	-0.394518	0.0398608	-4.08742	0.122381	-49.0711	1233.21	112.344	-0.151225	0	-0.737397	-0.196419	4.93623	0.449683
1.61	-197.966	857.831	-58.1661	-0.160819	0	-0.38907	0.72979	-3.16234	0.214425	-222.13	718.983	87.5555	-0.115321	0	-0.735729	-0.328418	1.06301	0.12945
1.62	-311.439	510.244	-60.2703	-0.10641	0	-0.378984	0.973807	-1.59543	0.188453	-316.155	413.836	50.1772	-0.0494151	0	-0.724811	1.75525	-2.29756	-0.278577
1.63	-279.287	414.643	-30.6973	-0.0830211	0	-0.376357	1.59009	-2.36072	0.174771	-307.254	357.145	19.1029	-0.0288636	0	-0.717598	1.51392	-1.75974	-0.0941249
1.64	-222.61	439.744	-15.5624	-0.0915616	0	-0.378021	1.81739	-3.59007	0.127051	-280.464	372.382	5.50574	-0.0344794	0	-0.718327	0.391043	-0.519201	-0.0076765
1.65	-197.368	533.521	-33.126	-0.107855	0	-0.379289	1.36924	-3.70129	0.229811	-244.266	425.388	1.98503	-0.0504426	0	-0.721306	-0.729617	1.27062	0.00592924
1.66	-153.059	654.557	-45.4583	-0.12591	0	-0.381755	0.827339	-3.53811	0.245718	-183.199	541.966	11.2113	-0.0798904	0	-0.724429	-1.0589	3.13259	0.0648016
1.67	-85.0505	735.798	-53.4335	-0.139502	0	-0.383348	0.342987	-2.96728	0.215484	-113.372	649.039	47.0004	-0.101976	0	-0.727982	-0.480955	2.75339	0.199388
1.68	-60.0692	737.941	-57.2069	-0.142572	0	-0.382959	0.227306	-2.79242	0.216475	-95.1205	646.6	74.9261	-0.105337	0	-0.731013	-0.257313	1.74914	0.202685
1.69	-88.2772	679.563	-53.7592	-0.136102	0	-0.381141	0.466125	-3.58826	0.283862	-129.688	570.434	65.052	-0.095259	0	-0.731577	-0.638081	2.8066	0.320064
1.7	-111.691	604.645	-50.2175	-0.127841	0	-0.378675	0.774942	-4.19518	0.348422	-155.613	500.279	44.613	-0.0841913	0	-0.731503	-1.48785	4.78327	0.426554
1.71	-115.89	552.125	-56.0001	-0.123176	0	-0.376125	0.811881	-3.86797	0.392315	-152.167	461.987	40.6946	-0.0804338	0	-0.732217	-1.91752	5.82171	0.512811
1.72	-111.574	533.735	-62.5701	-0.123195	0	-0.374798	0.76092	-3.64	0.426719	-135.433	458.75	49.7272	-0.0845966	0	-0.733317	-1.85531	6.28448	0.681219
1.73	-99.6491	545.707	-60.3771	-0.127754	0	-0.375656	0.80075	-4.38513	0.485172	-115.496	480.823	57.616	-0.0932312	0	-0.733928	-1.71992	7.16027	0.858
1.74	-82.0183	572.88	-53.762	-0.134296	0	-0.377536	0.806277	-5.63167	0.528506	-96.8584	499.504	58.9391	-0.10111	0	-0.733746	-1.62302	8.37	0.98762
1.75	-68.206	593.519	-50.5833	-0.139276	0	-0.378582	0.763837	-6.6468	0.566481	-87.2764	497.036	56.3507	-0.105399	0	-0.733539	-1.64908	9.39146	1.06474
1.76	-63.6283	596.338	-53.5776	-0.141525	0	-0.378321	0.751275	-7.04112	0.632604	-87.504	481.105	54.2818	-0.106758	0	-0.733783	-1.83421	10.0847	1.13783
1.77	-63.2638	590.738	-58.7109	-0.142565	0	-0.377718	0.754395	-7.04431	0.700104	-88.728	467.645	53.0635	-0.107997	0	-0.73403	-2.01362	10.6129	1.20424
1.78	-59.157	592.868	-61.0682	-0.144669	0	-0.378302	0.702294	-7.03835	0.724983	-86.1709	463.987	51.4222	-0.110261	0	-0.734047	-2.0736	11.1653	1.23742
1.79	-49.6591	602.59	-59.0454	-0.148081	0	-0.380392	0.596019	-7.23241	0.708675	-81.1103	466.661	51.8251	-0.113284	0	-0.734054	-2.00914	11.5594	1.28373
1.8	-41.3096	610.496	-55.1003	-0.151222	0	-0.382821	0.512522	-7.57433	0.683621	-74.4727	469.372	56.7426	-0.116389	0	-0.734218	-1.819	11.4644	1.38594
1.81	-37.9738	610.712	-51.6709	-0.153365	0	-0.384867	0.487874	-7.8462	0.663849	-66.6989	472.106	62.6964	-0.119647	0	-0.734119	-1.56783	11.0974	1.47375
1.82	-37.0365	606.631	-48.8149	-0.154903	0	-0.386601	0.486222	-7.96396	0.640852	-58.1558	479.07	63.4934	-0.123561	0	-0.733025	-1.33347	10.9847	1.45586
1.83	-34.2811	605.129	-46.8008	-0.156671	0	-0.388123	0.447617	-7.90133	0.61109	-48.9793	486.156	59.0814	-0.127899	0	-0.731079	-1.11867	11.1036	1.3494
1.84	-28.5624	607.059	-46.3865	-0.158841	0	-0.38931	0.358353	-7.61636	0.58198	-42.1128	481.856	53.3573	-0.131136	0	-0.728925	-0.971473	11.1156	1.23087
1.85	-22.5769	608.615	-46.8833	-0.160854	0	-0.390289	0.262998	-7.08976	0.546145	-41.5285	461.935	47.7455	-0.132561	0	-0.726994	-0.978161	10.8804	1.12459
1.86	-19.6103	605.331	-46.6101	-0.162126	0	-0.39117	0.207694	-6.41111	0.493651	-44.8387	434.387	42.4806	-0.132692	0	-0.725363	-1.07753	10.4388	1.02086
1.87	-18.9675	598.914	-44.6139	-0.163047	0	-0.392196	0.182137	-5.75111	0.428408	-45.3639	409.922	38.3422	-0.133099	0	-0.723665	-1.10049	9.9444	0.930153
1.88	-16.1982	595.203	-41.3689	-0.16456	0	-0.393375	0.140348	-5.15708	0.358437	-39.5756	393.226	35.3635	-0.135411	0	-0.721794	-0.967855	9.61666	0.864843
1.89	-10.3275	593.667	-38.3373	-0.166843	0	-0.394694	0.080337	-4.61812	0.298225	-30.3315	381.642	32.8263	-0.138967	0	-0.719913	-0.748221	9.41439	0.809764
1.9	-4.72084	589.236	-36.7152	-0.169142	0	-0.395781	0.0333718	-4.16532	0.259541	-21.3383	369.272	30.083	-0.142811	0	-0.717896	-0.535459	9.26644	0.754897
1.91	-1.50932	578.856	-36.6128	-0.171003	0	-0.396294	0.00982675	-3.76877	0.238375	-14.1899	354.96	26.7214	-0.146723	0	-0.715675	-0.36496	9.12949	0.687267
1.92	0.167483	564.818	-37.6933	-0.172597	0	-0.396495	-0.00101117	-3.41005	0.22757	-8.02672	343.797	22.7958	-0.150635	0	-0.713413	-0.210907	9.03346	0.598973
1.93	2.84692	552.717	-39.5712	-0.174444	0	-0.396516	-0.0160655	-3.11905	0.223305	-2.02015	336.666	19.9346	-0.154784	0	-0.711574	-0.0536092	8.9342	0.52901
1.94	8.61424	545.055	-41.833	-0.176919	0	-0.396721	-0.0457549	-2.89509	0.222198	3.10812	331.22	18.9542	-0.158607	0	-0.710115	0.0823911	8.78011	0.502446
1.95	16.1268	540.065	-43.6256	-0.179834	0	-0.397159	-0.0814405	-2.72734	0.22031	7.03117	324.656	19.0746	-0.162076	0	-0.709176	0.185434	8.56218	0.503056
1.96	22.4604	534.595	-44.6198	-0.182766	0	-0.397793	-0.112203	-2.67063	0.222904	10.0382	315.962	19.5429	-0.165377	0	-0.708277	0.263164	8.28331	0.512341
1.97	26.5103	527.207	-44.6196	-0.185354	0	-0.398591	-0.137566	-2.73575	0.231538	12.9599	307.815	20.1577	-0.168568	0	-0.707605	0.335449	7.96735	0.521754
1.98	29.2064	519.048	-44.1848	-0.187674	0	-0.399442	-0.158389	-2.81485	0.239618	16.2226	300.253	20.686	-0.171748	0	-0.706863	0.411097	7.60874	0.524207
1.99	31.3455	510.887	-44.4546	-0.189837	0	-0.400191	-0.173423	-2.82655	0.24595	19.5159	290.627	20.803	-0.175066	0	-0.705464	0.486472	7.24446	0.518556
2	33.7449	502.69	-45.2922	-0.191967	0	-0.400792	-0.186455	-2.77758	0.250259	22.7716	280.562	20.4847	-0.178027	0	-0.703992	0.551553	6.79552	0.496163
2.01	37.3356	494.443	-45.6161	-0.194256	0	-0.40138	-0.2009	-2.66056	0.245457	26.0207	272.317	19.7482	-0.180337	0	-0.70278	0.6045	6.32634	0.458781
2.02	42.5137	484.882	-44.942	-0.196645	0	-0.402307	-0.212839	-2.4275	0.224996	29.0723	263.783	18.7982	-0.182677	0	-0.70169	0.646649	5.86726	0.418124
2.03	48.6534	472.976	-44.1889	-0.198987	0	-0.403107	-0.219056	-2.12952	0.198955	33.0322	253.509	18.1301	-0.185311	0	-0.69993	0.714268	5.48173	0.392035
2.04	54.0745	459.871	-44.1117	-0.200946	0	-0.403806	-0.218073	-1.85457	0.177895	39.3444	245.324	18.546	-0.187673	0	-0.69865	0.818413	5.10306	0.385781
2.05	57.8431	447.527	-43.7832	-0.202349	0	-0.404364	-0.20715	-1.6027	0.156798	47.3972	239.722	20.0777	-0.189855	0	-0.697936	0.942096	4.76486	0.399077
2.06	58.8044	436.518	-43.0422	-0.203032	0	-0.40487	-0.187829	-1.39429	0.137482	54.5008	235.405	21.7554	-0.192032	0	-0.697571	1.04032	4.49343	0.41527
2.07	57.7519	429.498	-42.48	-0.203002	0	-0.405377	-0.172122	-1.28007	0.126606	57.8614	233.657	22.7661	-0.192849	0	-0.697728	1.05859	4.27481	0.416511
